<svg xmlns="http://www.w3.org/2000/svg" xmlns:xlink="http://www.w3.org/1999/xlink" fill="#000000" height="32px" width="64px" version="1.1" id="Capa_1" viewBox="0 0 228.337 228.337" xml:space="preserve">
<path d="M60.877,145.375H167.46v52.823H60.877V145.375z M198.619,212.475v3.055c0,7.063-5.746,12.808-12.808,12.808H42.526  c-7.063,0-12.808-5.745-12.808-12.808v-3.055c0-2.762,2.239-5,5-5h6.883v-76.587c0-2.762,2.239-5,5-5h135.135c2.761,0,5,2.238,5,5  v76.587h6.883C196.38,207.475,198.619,209.713,198.619,212.475z M177.46,140.375c0-2.762-2.239-5-5-5H55.877c-2.761,0-5,2.238-5,5  v62.823c0,2.762,2.239,5,5,5H172.46c2.761,0,5-2.238,5-5V140.375z M156.392,19.093c-2.243,0-4.47,0.218-6.657,0.648  C141.646,7.473,127.931,0,113.067,0C91.2,0,73.014,16.062,69.691,37.008c-2.053-0.517-4.172-0.781-6.313-0.781  c-14.229,0-25.806,11.576-25.806,25.806s11.576,25.807,25.806,25.807h45.791v18.178L97.875,94.724c-1.953-1.953-5.118-1.953-7.071,0  c-1.953,1.952-1.953,5.118,0,7.07l19.828,19.828c0.233,0.233,0.49,0.441,0.765,0.625c0.12,0.08,0.251,0.135,0.376,0.204  c0.16,0.088,0.314,0.184,0.484,0.255c0.164,0.068,0.335,0.107,0.504,0.156c0.143,0.042,0.281,0.098,0.429,0.127  c0.323,0.064,0.651,0.099,0.979,0.099s0.656-0.034,0.979-0.099c0.148-0.03,0.286-0.085,0.429-0.127  c0.169-0.05,0.34-0.089,0.504-0.156c0.17-0.07,0.324-0.167,0.484-0.255c0.125-0.069,0.256-0.124,0.376-0.204  c0.275-0.184,0.532-0.392,0.765-0.625l19.827-19.828c1.953-1.952,1.953-5.118,0-7.07c-1.953-1.953-5.118-1.953-7.071,0  l-11.293,11.293V87.839h37.224c18.953,0,34.373-15.42,34.373-34.373S175.345,19.093,156.392,19.093z"/>
</svg>